PathFileType	4	(x/y/z)	S05_PSF_T06
DataRate	CameraRate	NumFrames	NumMarkers	Units	OrigDataRate	OrigDataStartFrame	OrigNumFrames
240	240	10	50	mm	240	162	430
Frame#	Time	Sternum			R.Acromium			L.Acromium			Top.Head			R.ASIS			L.ASIS			R.PSIS			L.PSIS			R.Great.Tro			L.Great.Tro			R.Iliac.Crest			L.Iliac.Crest			V.Sacral			R.Thigh.Upper.Post			R.Thigh.Lower.Ant			R.Thigh.Lower.Post			R.Thigh.Upper.Ant			R.Knee.Lat			R.Knee.Med			R.Shank.Upper.Post			R.Shank.Lower.Ant			R.Shank.Lower.Post			R.Shank.Upper.Ant			R.Ankle.Lat			R.Ankle.Med			R.Heel.Upper			R.Heel.Med			R.Heel.Lat			R.Toe.Lat			R.Toe.Med			R.Toe.Tip			L.Thigh.Upper.Post			L.Thigh.Lower.Ant			L.Thigh.Lower.Post			L.Thigh.Upper.Ant			L.Knee.Lat			L.Shank.Upper.Post			L.Shank.Lower.Ant			L.Shank.Lower.Post			L.Shank.Upper.Ant			L.Ankle.Lat			L.Ankle.Med			L.Heel.Upper			L.Heel.Med			L.Heel.Lat			L.Toe.Lat			L.Toe.Med			L.Toe.Tip			Cervical.Spine			Back			
		X1	Y1	Z1	X2	Y2	Z2	X3	Y3	Z3	X4	Y4	Z4	X5	Y5	Z5	X6	Y6	Z6	X7	Y7	Z7	X8	Y8	Z8	X9	Y9	Z9	X10	Y10	Z10	X11	Y11	Z11	X12	Y12	Z12	X13	Y13	Z13	X14	Y14	Z14	X15	Y15	Z15	X16	Y16	Z16	X17	Y17	Z17	X18	Y18	Z18	X19	Y19	Z19	X20	Y20	Z20	X21	Y21	Z21	X22	Y22	Z22	X23	Y23	Z23	X24	Y24	Z24	X25	Y25	Z25	X26	Y26	Z26	X27	Y27	Z27	X28	Y28	Z28	X29	Y29	Z29	X30	Y30	Z30	X31	Y31	Z31	X32	Y32	Z32	X33	Y33	Z33	X34	Y34	Z34	X35	Y35	Z35	X36	Y36	Z36	X37	Y37	Z37	X38	Y38	Z38	X39	Y39	Z39	X40	Y40	Z40	X41	Y41	Z41	X42	Y42	Z42	X43	Y43	Z43	X44	Y44	Z44	X45	Y45	Z45	X46	Y46	Z46	X47	Y47	Z47	X48	Y48	Z48	X49	Y49	Z49	X50	Y50	Z50	

162	0.67083	-568.09	1223.4	301.91	-668.84	1481	458.04	-655.19	1512.2	137.63	-654.97	1797.4	299.25	-636.2	982.05	415.1	-632.2	985.81	164.6	-837.92	995.46	334.04	-834.64	1004.8	243.7	-707.58	896.73	479.99	-738.56	913.55	93.708	-727.88	1061.1	457.45	-723.31	1064.2	121.22	-848.76	963.7	299.46	-581.17	701.41	467.44	-514.24	651.24	408.9	-566.61	614.71	444.33	-533.42	736.2	431.15	-538.79	525.12	422.6	-536.85	512.02	291.97	-551.46	274.94	412.74	-474.12	228.28	416.7	-531.83	201.36	397.96	-493.44	302.83	429.34	-458.77	123.69	401.49	-454.44	146.9	314.16	-514.12	66.025	337.83	-497.79	35.606	311.21	-501.84	39.742	375.65	-339.7	55.524	432.42	-304.97	70.165	315.88	-248.31	102.22	361.84	-791.68	687.76	101.58	-731.97	596.67	121.48	-803.86	593.29	118.17	-714.89	684.5	103.49	-828.24	502.04	126.36	-987.21	365.88	136.48	-963.37	279.85	137.34	-1028.5	305	158.29	-928.77	340.76	122.34	-1077.1	168.34	169.43	-1031.9	166.9	252.37	-1148.5	149.72	228.13	-1144.8	124.46	261.76	-1160.4	122.85	202.47	-1005.2	40.234	139.01	-969.33	51.072	255.79	-913.92	43.406	199.08	-706.03	1536.5	300.75	-830.37	1266.9	282.33
163	0.675	-562.03	1223.9	302.59	-663.27	1481	458.98	-649.35	1512.6	138.59	-649.23	1797.7	300.52	-630.21	982.62	415.58	-625.95	985.7	165.05	-831.85	995.7	334.28	-828.39	1004.7	243.91	-701.39	897.3	480.47	-732.04	913.1	94.235	-721.79	1061.5	457.78	-716.84	1064.3	121.64	-842.59	963.81	299.77	-575.3	701.86	467.8	-508.39	651.6	409.28	-560.78	615.12	444.73	-527.48	736.58	431.53	-533.04	525.5	423.2	-531.51	512.36	292.6	-547.67	275.33	413.43	-470.78	227.92	417	-528.82	201.58	398.55	-489.31	302.66	429.74	-456.83	123.32	401.69	-452.36	146.46	314.39	-513.1	66.691	337.92	-497.34	36.029	311.25	-501.32	40.175	375.71	-338.83	53.377	432.47	-303.78	67.487	315.93	-246.57	98.543	361.9	-784.36	687	101.91	-724.05	596.19	121.21	-795.92	592.47	118.07	-707.44	684.2	103.61	-820.02	501.47	125.89	-980.72	367.43	136.36	-957.96	281.16	136.89	-1022.6	307.14	158.05	-922.45	341.64	121.84	-1073.1	171.42	169.02	-1027.8	169.09	251.79	-1144.5	154.67	227.79	-1141.3	129.53	261.56	-1157	127.98	202.3	-1004.6	41.105	138.99	-968.37	51.518	255.66	-913.59	43.064	199.08	-700.34	1536.7	301.74	-824.38	1267.1	282.79
164	0.67917	-555.98	1224.4	303.27	-657.7	1481.1	459.91	-643.53	1513.2	139.55	-643.49	1798	301.78	-624.26	983.25	416.08	-619.7	985.63	165.54	-825.8	996	334.5	-822.17	1004.7	244.09	-695.22	897.93	480.97	-725.48	912.67	94.776	-715.79	1062	458.12	-710.33	1064.4	122.07	-836.46	963.98	300.07	-569.46	702.39	468.2	-502.55	652.03	409.72	-554.97	615.59	445.17	-521.56	737.04	431.96	-527.34	525.9	423.84	-526.21	512.74	293.27	-543.96	275.75	414.19	-467.53	227.6	417.34	-525.9	201.86	399.21	-485.26	302.52	430.17	-454.98	122.98	401.92	-450.4	146.09	314.65	-512.13	67.327	338.02	-496.92	36.463	311.3	-500.83	40.599	375.78	-338.04	51.381	432.54	-302.7	64.99	316	-244.97	95.069	361.99	-776.91	686.21	102.21	-715.95	595.72	120.91	-787.8	591.62	117.94	-699.85	683.92	103.71	-811.57	500.86	125.37	-973.96	368.99	136.21	-952.28	282.51	136.41	-1016.4	309.33	157.78	-915.85	342.53	121.31	-1068.9	174.61	168.6	-1023.4	171.38	251.2	-1140.1	159.81	227.44	-1137.5	134.83	261.35	-1153.4	133.35	202.11	-1003.9	42.122	138.96	-967.31	52.05	255.51	-913.22	42.709	199.08	-694.65	1537	302.72	-818.4	1267.2	283.24
165	0.68333	-549.94	1224.9	303.96	-652.13	1481.2	460.82	-637.73	1513.8	140.48	-637.74	1798.4	303.02	-618.34	983.94	416.62	-613.47	985.59	166.06	-819.78	996.34	334.69	-815.97	1004.7	244.26	-689.09	898.6	481.48	-718.91	912.25	95.331	-709.89	1062.6	458.46	-703.79	1064.6	122.51	-830.35	964.19	300.35	-563.65	702.97	468.63	-496.71	652.53	410.21	-549.18	616.13	445.64	-515.66	737.56	432.44	-521.71	526.31	424.52	-520.96	513.15	293.97	-540.34	276.2	415.03	-464.36	227.32	417.7	-523.06	202.16	399.92	-481.3	302.4	430.65	-453.23	122.67	402.17	-448.55	145.79	314.93	-511.22	67.927	338.13	-496.51	36.9	311.35	-500.36	41.009	375.87	-337.32	49.539	432.64	-301.71	62.668	316.07	-243.52	91.801	362.09	-769.33	685.38	102.48	-707.66	595.25	120.57	-779.5	590.74	117.75	-692.11	683.65	103.79	-802.86	500.23	124.81	-966.9	370.57	136.01	-946.33	283.9	135.9	-1009.9	311.56	157.46	-908.96	343.43	120.76	-1064.4	177.91	168.17	-1018.9	173.78	250.6	-1135.3	165.14	227.06	-1133.4	140.34	261.12	-1149.4	138.94	201.9	-1003.1	43.298	138.92	-966.16	52.682	255.36	-912.8	42.342	199.07	-688.97	1537.3	303.7	-812.43	1267.4	283.68
166	0.6875	-543.92	1225.6	304.64	-646.55	1481.4	461.72	-631.94	1514.4	141.4	-632	1798.8	304.25	-612.46	984.67	417.18	-607.26	985.59	166.62	-813.78	996.72	334.87	-809.8	1004.7	244.41	-682.97	899.32	482	-712.32	911.83	95.896	-704.07	1063.2	458.82	-697.23	1064.8	122.97	-824.28	964.43	300.61	-557.88	703.59	469.1	-490.89	653.07	410.76	-543.41	616.71	446.15	-509.78	738.12	432.98	-516.14	526.74	425.22	-515.77	513.59	294.7	-536.79	276.66	415.93	-461.28	227.06	418.08	-520.31	202.5	400.68	-477.41	302.3	431.15	-451.58	122.39	402.42	-446.82	145.54	315.23	-510.37	68.488	338.25	-496.12	37.33	311.41	-499.93	41.401	375.96	-336.68	47.85	432.74	-300.81	60.516	316.13	-242.2	88.738	362.19	-761.62	684.52	102.72	-699.18	594.8	120.2	-771.01	589.83	117.53	-684.23	683.39	103.84	-793.92	499.56	124.21	-959.55	372.17	135.77	-940.09	285.32	135.37	-1003.2	313.84	157.1	-901.8	344.34	120.18	-1059.6	181.32	167.73	-1014	176.28	250	-1130.2	170.64	226.65	-1129	146.06	260.87	-1145.1	144.76	201.65	-1002.1	44.647	138.88	-964.89	53.43	255.18	-912.3	41.97	199.04	-683.31	1537.7	304.65	-806.47	1267.7	284.12
167	0.69167	-537.92	1226.2	305.32	-640.97	1481.7	462.59	-626.17	1515	142.31	-626.26	1799.2	305.45	-606.62	985.44	417.76	-601.08	985.62	167.21	-807.82	997.13	335.04	-803.66	1004.8	244.55	-676.89	900.07	482.54	-705.73	911.42	96.469	-698.34	1063.8	459.18	-690.66	1065.1	123.43	-818.24	964.71	300.87	-552.16	704.25	469.61	-485.1	653.64	411.37	-537.69	617.33	446.69	-503.94	738.72	433.58	-510.63	527.17	425.94	-510.64	514.04	295.44	-533.33	277.14	416.88	-458.29	226.84	418.46	-517.65	202.86	401.47	-473.61	302.21	431.66	-450.03	122.14	402.68	-445.2	145.35	315.52	-509.58	69.004	338.36	-495.76	37.749	311.47	-499.52	41.774	376.05	-336.11	46.314	432.85	-300.01	58.527	316.19	-241.01	85.877	362.27	-753.77	683.63	102.93	-690.53	594.36	119.81	-762.35	588.88	117.27	-676.21	683.16	103.88	-784.74	498.87	123.58	-951.89	373.79	135.48	-933.56	286.78	134.82	-996.09	316.15	156.69	-894.36	345.26	119.6	-1054.5	184.84	167.28	-1009	178.89	249.4	-1124.8	176.31	226.23	-1124.3	151.98	260.61	-1140.5	150.79	201.37	-1001.1	46.181	138.82	-963.49	54.309	255	-911.72	41.598	198.99	-677.65	1538	305.59	-800.53	1268	284.54
168	0.69583	-531.94	1227	306	-635.39	1482	463.45	-620.41	1515.7	143.19	-620.53	1799.7	306.64	-600.82	986.24	418.38	-594.92	985.68	167.82	-801.88	997.57	335.19	-797.56	1004.9	244.68	-670.84	900.85	483.08	-699.13	911.02	97.048	-692.69	1064.5	459.55	-684.08	1065.4	123.9	-812.25	965.01	301.12	-546.48	704.92	470.16	-479.35	654.23	412.02	-532.03	617.96	447.25	-498.12	739.32	434.22	-505.2	527.6	426.66	-505.58	514.49	296.2	-529.96	277.62	417.86	-455.39	226.63	418.83	-515.08	203.24	402.29	-469.91	302.12	432.18	-448.57	121.91	402.93	-443.69	145.2	315.81	-508.85	69.474	338.47	-495.42	38.149	311.52	-499.14	42.124	376.15	-335.6	44.929	432.96	-299.28	56.695	316.23	-239.93	83.215	362.34	-745.79	682.72	103.09	-681.71	593.94	119.4	-753.52	587.92	116.98	-668.06	682.94	103.9	-775.32	498.16	122.93	-943.93	375.45	135.14	-926.74	288.28	134.25	-988.72	318.52	156.25	-886.64	346.2	119	-1049.2	188.46	166.82	-1003.7	181.6	248.79	-1119.1	182.14	225.77	-1119.3	158.09	260.32	-1135.5	157.02	201.05	-999.83	47.911	138.75	-961.95	55.334	254.78	-911.04	41.234	198.9	-672.01	1538.4	306.5	-794.61	1268.3	284.96
169	0.7	-526	1227.7	306.67	-629.81	1482.3	464.28	-614.67	1516.4	144.06	-614.81	1800.2	307.81	-595.04	987.06	419.01	-588.81	985.77	168.46	-795.97	998.02	335.35	-791.51	1004.9	244.81	-664.83	901.65	483.62	-692.55	910.62	97.631	-687.13	1065.2	459.93	-677.5	1065.7	124.38	-806.29	965.33	301.36	-540.86	705.59	470.74	-473.65	654.8	412.71	-526.44	618.6	447.85	-492.35	739.91	434.92	-499.86	528.01	427.39	-500.6	514.94	296.96	-526.68	278.11	418.87	-452.59	226.43	419.2	-512.6	203.63	403.11	-466.29	302.03	432.7	-447.2	121.71	403.17	-442.28	145.08	316.09	-508.19	69.897	338.57	-495.11	38.526	311.57	-498.79	42.45	376.24	-335.14	43.691	433.06	-298.64	55.011	316.26	-238.97	80.746	362.38	-737.67	681.79	103.22	-672.73	593.53	118.99	-744.52	586.93	116.66	-659.78	682.73	103.91	-765.68	497.42	122.26	-935.66	377.14	134.75	-919.64	289.81	133.68	-981.06	320.94	155.77	-878.65	347.15	118.4	-1043.5	192.19	166.35	-998.1	184.42	248.19	-1113	188.12	225.3	-1114	164.35	260.02	-1130.3	163.44	200.7	-998.42	49.85	138.66	-960.25	56.518	254.54	-910.24	40.888	198.79	-666.38	1538.9	307.4	-788.71	1268.6	285.37
170	0.70417	-520.09	1228.4	307.34	-624.24	1482.7	465.09	-608.94	1517.1	144.9	-609.1	1800.7	308.95	-589.29	987.9	419.65	-582.75	985.88	169.12	-790.09	998.49	335.5	-785.49	1005.1	244.93	-658.86	902.46	484.18	-685.97	910.23	98.215	-681.63	1065.9	460.33	-670.95	1066	124.86	-800.36	965.67	301.62	-535.3	706.24	471.35	-468.02	655.35	413.44	-520.93	619.21	448.47	-486.63	740.48	435.66	-494.6	528.4	428.12	-495.7	515.38	297.72	-523.48	278.6	419.87	-449.88	226.24	419.54	-510.2	204.03	403.93	-462.77	301.94	433.21	-445.91	121.52	403.4	-440.98	145.01	316.34	-507.58	70.273	338.66	-494.83	38.877	311.62	-498.47	42.751	376.33	-334.74	42.595	433.16	-298.06	53.468	316.26	-238.11	78.464	362.4	-729.43	680.85	103.3	-663.6	593.15	118.57	-735.36	585.93	116.31	-651.38	682.55	103.91	-755.81	496.67	121.59	-927.1	378.86	134.32	-912.25	291.39	133.1	-973.12	323.41	155.26	-870.4	348.12	117.82	-1037.6	196.03	165.88	-992.31	187.34	247.59	-1106.6	194.23	224.81	-1108.4	170.76	259.69	-1124.7	170.02	200.32	-996.82	52.005	138.54	-958.36	57.872	254.27	-909.3	40.571	198.63	-660.77	1539.3	308.27	-782.83	1269	285.78
171	0.70833	-514.21	1229.2	308.01	-618.66	1483.1	465.88	-603.23	1517.8	145.72	-603.41	1801.2	310.06	-583.57	988.74	420.31	-576.73	986.02	169.8	-784.25	998.96	335.67	-779.52	1005.2	245.07	-652.94	903.27	484.73	-679.42	909.85	98.8	-676.2	1066.6	460.73	-664.43	1066.3	125.36	-794.48	966	301.88	-529.82	706.86	471.99	-462.47	655.86	414.2	-515.52	619.81	449.11	-480.97	741.01	436.44	-489.44	528.77	428.83	-490.9	515.8	298.47	-520.38	279.08	420.87	-447.26	226.06	419.86	-507.9	204.43	404.73	-459.36	301.85	433.7	-444.71	121.35	403.6	-439.77	144.95	316.57	-507.02	70.602	338.74	-494.57	39.199	311.66	-498.17	43.026	376.41	-334.39	41.635	433.26	-297.56	52.057	316.24	-237.35	76.362	362.38	-721.05	679.9	103.35	-654.32	592.8	118.16	-726.05	584.93	115.94	-642.87	682.38	103.9	-745.73	495.91	120.93	-918.24	380.62	133.85	-904.58	293.01	132.52	-964.9	325.93	154.72	-861.9	349.11	117.25	-1031.5	199.96	165.4	-986.29	190.36	247	-1099.9	200.44	224.29	-1102.4	177.3	259.34	-1118.8	176.75	199.9	-994.99	54.383	138.4	-956.26	59.405	253.97	-908.19	40.298	198.42	-655.17	1539.8	309.11	-776.98	1269.4	286.18
